<?xml version="1.0" encoding="UTF-8"?>
<svg id="uuid-8f2949ec-e1ab-450f-b108-f7a4d09fe24c" data-name="Layer 2" xmlns="http://www.w3.org/2000/svg" xmlns:xlink="http://www.w3.org/1999/xlink" viewBox="0 0 1920 1080">
  <defs>
    <linearGradient id="uuid-2c26784c-ba21-417f-b3d1-5ef413bdf56b" x1="54.47" y1="981.54" x2="159.99" y2="981.54" gradientUnits="userSpaceOnUse">
      <stop offset="0" stop-color="#041e42"/>
      <stop offset=".49" stop-color="#041e42" stop-opacity=".97"/>
      <stop offset=".66" stop-color="#072042" stop-opacity=".87"/>
      <stop offset=".79" stop-color="#0c2342" stop-opacity=".69"/>
      <stop offset=".89" stop-color="#142842" stop-opacity=".43"/>
      <stop offset=".97" stop-color="#1d2e42" stop-opacity=".11"/>
      <stop offset=".99" stop-color="#213043" stop-opacity="0"/>
    </linearGradient>
  </defs>
  <path d="M539.37,935.54v.18l-3,9.18-2.45,7.5c-10.05,4-20.21,8.87-30.29,14.61-30.12,17.13-54.04,38.84-68.86,60.53H54.47l33.38-76.77h51.96v-15.23h399.56Z" style="fill: #213043; opacity: .8;"/>
  <polygon points="161.37 935.54 161.37 1027.54 54.47 1027.54 87.85 950.77 139.81 950.77 139.81 935.54 161.37 935.54" style="fill: url(#uuid-2c26784c-ba21-417f-b3d1-5ef413bdf56b);"/>
  <path d="M539.43,935.54l-.06,.18-3,9.18-2.45,7.5c-10.05,4-20.21,8.87-30.29,14.61-30.12,17.13-54.04,38.84-68.86,60.53-.08,.12-.16,.23-.24,.35l-380.2-.02,.14-.33,33.38-76.77h51.96v-15.23h399.62Z" style="fill: none; stroke: #041e42; stroke-miterlimit: 10; stroke-width: 8px;"/>
  <g>
    <path d="M129.57,1018.09c-.89-1.22-1.77-2.46-2.68-3.66-.16-.22-.46-.33-.86-.61,0,1.15-.02,2.06,.02,2.96,0,.15,.27,.29,.41,.43,.17,.16,.34,.32,.51,.47-.04,.06-.09,.12-.13,.18h-4.24c.25-.3,.37-.6,.54-.62,.46-.07,.47-.36,.47-.7,0-1.99,0-3.97,0-5.96,0-.41-.03-.72-.55-.78-.15-.02-.26-.31-.53-.66,1.56,0,2.86,0,4.17,0,.82,0,1.65-.04,2.45,.08,1.18,.18,1.82,.84,1.9,1.78,.11,1.22-.39,2.04-1.54,2.5-.16,.06-.32,.11-.6,.21,1.03,1.17,2.03,2.3,3.02,3.43,.16,.18,.26,.41,.43,.67-.91,.1-1.63,.19-2.36,.27h-.45Zm-3.56-5.11c.77-.14,1.42-.18,2-.38,.6-.21,.73-.78,.65-1.36-.08-.59-.51-.84-1.04-.89-.51-.05-1.02-.01-1.58-.01-.02,.29-.04,.5-.04,.72,0,.56,0,1.13,0,1.92Z" style="fill: #fece3a;"/>
    <path d="M115.99,1018.09c-.43-.17-.87-.31-1.29-.5-1.64-.73-2.46-2.05-2.53-3.8-.08-1.76,.51-3.26,2.15-4.11,1.9-.99,3.88-1.01,5.8-.05,1.72,.86,2.42,2.54,2.14,4.75-.22,1.71-1.6,3.11-3.48,3.54-.18,.04-.36,.11-.54,.17h-2.24Zm-1.47-4.62s.05,.01,.08,.02c.01,.25,.01,.5,.04,.74,.17,1.31,1.11,2.4,2.18,2.53,1.29,.15,2.29-.46,2.78-1.75,.41-1.07,.39-2.16-.08-3.19-.44-.97-1.19-1.56-2.33-1.54-1.12,.01-1.82,.61-2.24,1.55-.23,.51-.29,1.09-.43,1.64Z" style="fill: #fecd38;"/>
    <path d="M95.7,1018.09c-.75-.27-1.5-.54-2.32-.83,.3-.8,.57-1.51,.89-2.33,.26,.17,.61,.3,.6,.4-.07,.77,.54,.92,1.02,1.07,.62,.2,1.3,.33,1.95,.32,.62-.01,1.05-.47,1.12-1.1,.08-.64-.41-.81-.91-.98-1.1-.38-2.24-.68-3.26-1.21-1.07-.56-1.38-1.67-.86-2.68,.23-.44,.62-.86,1.04-1.12,.49-.3,1.09-.52,1.66-.59,1.44-.17,2.86,.03,4.36,.48-.24,.71-.46,1.37-.72,2.15-.21-.11-.52-.19-.53-.28-.02-.77-.65-.85-1.15-.95-.57-.12-1.19-.15-1.76-.06-.27,.04-.65,.45-.67,.73-.02,.24,.33,.65,.6,.76,.83,.33,1.71,.5,2.55,.81,1.4,.52,2.08,1.44,2.04,2.62-.04,1.12-.83,2.01-2.16,2.47-.32,.11-.63,.22-.95,.33h-2.54Z" style="fill: #fecd39;"/>
    <path d="M144.5,1018.09c-.75-.27-1.51-.53-2.33-.82,.26-.71,.48-1.34,.74-1.95,.05-.11,.27-.21,.4-.2,.13,0,.37,.18,.36,.25-.09,.78,.53,.91,1.02,1.06,.61,.18,1.25,.32,1.88,.31,.66,0,1.1-.47,1.17-1.14,.07-.65-.44-.81-.94-.96-.92-.29-1.87-.53-2.75-.91-.9-.39-1.57-1.01-1.53-2.15,.05-1.13,.7-1.79,1.64-2.18,1.85-.77,3.7-.36,5.62,.12-.25,.73-.49,1.4-.75,2.15-.2-.1-.49-.17-.5-.25-.05-.88-.79-.88-1.34-1.03-.44-.12-.96-.15-1.4-.04-.34,.09-.75,.42-.87,.74-.19,.51,.28,.72,.71,.84,.81,.24,1.63,.44,2.42,.74,1.42,.53,2.07,1.4,2.05,2.61-.02,1.14-.82,2.04-2.21,2.51-.29,.1-.59,.21-.88,.32h-2.54Z" style="fill: #fecd38;"/>
    <path d="M84.2,1009.13h7.25c.15,.64,.29,1.21,.43,1.8-.3,.27-.53,.37-.84-.04-.16-.22-.54-.36-.83-.38-.86-.05-1.73-.02-2.67-.02v2.03c.64,0,1.32,.03,2-.02,.16-.01,.29-.29,.45-.42,.12-.1,.29-.22,.41-.2,.1,.02,.23,.24,.23,.37,.02,.67,.01,1.33,.01,2.06-.2,0-.43,.05-.46,0-.64-1.12-1.76-.34-2.67-.78v3.17c1.21-.11,2.38-.19,3.54-.34,.19-.02,.32-.35,.52-.48,.14-.1,.36-.18,.5-.13,.11,.04,.14,.29,.21,.45,0,.02,0,.05-.01,.07-.27,1.61-.27,1.6-1.89,1.61-2.06,0-4.12,.03-6.18,.04v-.75c.71,.13,.91-.22,.9-.87-.02-1.8-.04-3.61,0-5.41,.02-.7-.13-1.15-.91-1.18v-.6Z" style="fill: #fecf3d;"/>
    <path d="M94.81,997.13c1.96-.33,3.58-1.05,4.79-2.53,.52-.64,.79-1.35,.78-2.19-.03-2.24-.01-4.48,0-6.71,0-.27,.03-.53,.04-.83h11.67v10.56h.85c3.83,0,7.66-.05,11.49,.01,4.82,.08,8.19-2.16,10.44-6.27,.31-.57,.63-.77,1.26-.74,1.13,.05,2.27,.02,3.57,.02-1.58,4.7-3.12,9.27-4.66,13.84-1.17-.32-2.28-.7-3.41-.92-.97-.19-1.97-.29-2.96-.29-10.52-.02-21.04-.02-31.56,0-.6,0-.94-.12-1.13-.75-.33-1.06-.76-2.09-1.17-3.19Z" style="fill: #fecd36;"/>
    <path d="M100.37,975.05v-5.23c0-.65-.04-1.3,0-1.94,.11-1.46-.56-2.54-1.76-3.21-1.18-.66-2.46-1.14-3.8-1.74,.42-1.13,.87-2.41,1.38-3.66,.06-.14,.41-.23,.62-.24,1.09-.02,2.19-.01,3.28-.01,9.6,0,19.19,0,28.79,0,1.8,0,3.58-.03,5.22-1.1,1.57,4.64,3.11,9.21,4.69,13.9-1.49,0-2.84,.02-4.2-.02-.18,0-.39-.32-.52-.53-.82-1.3-1.53-2.67-2.46-3.89-1.44-1.9-3.47-2.75-5.85-2.76-4.43,0-8.85,0-13.28,0-.1,0-.19,.03-.37,.05v10.37h-11.75Z" style="fill: #fecd36;"/>
    <path d="M94.6,983.03c.74-1.68,1.43-3.32,2.18-4.93,.08-.16,.44-.26,.68-.27,.94-.03,1.88-.01,2.85-.01,.04-.36,.07-.64,.11-.99h27.06c-.03,.69-.24,1.14-.93,1.45-2.31,1.01-4.3,2.47-5.87,4.47-.14,.18-.43,.36-.66,.36-8.38,.02-16.76,0-25.14,0-.05,0-.1-.02-.28-.08Z" style="fill: #fecd38;"/>
    <path d="M102.54,1017.69c.16-.17,.33-.32,.49-.5,.15-.18,.42-.37,.42-.56,.03-2.21,.02-4.41,.02-6.6-.28-.31-1.07-.07-.78-.89,2.06,0,4.14-.06,6.22,.02,1,.04,1.8,.59,2.05,1.65,.27,1.15,0,2.19-.92,2.96-1.14,.95-2.48,.96-3.88,.78,.05-.75,.18-1.22,1.08-1.15,.81,.06,1.3-.57,1.39-1.45,.08-.78-.37-1.42-1.14-1.6-.26-.06-.54-.03-.81-.05-.62-.05-.87,.19-.84,.86,.05,1.69,.03,3.38,.03,5.06,0,.55,.08,.99,.79,.98,.13,0,.26,.25,.4,.39-.15,.09-.29,.26-.44,.26-1.31,.02-2.62,.01-3.93,.01-.05-.07-.09-.13-.14-.2Z" style="fill: #fece3b;"/>
    <path d="M135.57,1010.39c-.68,.06-1.27,.07-1.84,.2-.23,.05-.38,.4-.6,.57-.13,.1-.36,.21-.49,.17-.11-.04-.24-.31-.21-.45,.08-.49,.19-.98,.36-1.44,.05-.14,.33-.28,.51-.28,2.34-.02,4.68-.02,7.01,0,.2,0,.49,.26,.58,.47,.17,.41,.25,.86,.33,1.29,.02,.13-.08,.34-.19,.4-.1,.06-.39,.01-.42-.07-.52-1.14-1.55-.69-2.51-.88-.05,.55-.15,1.03-.14,1.51,.01,1.54,.07,3.08,.09,4.62,0,.41,.1,.65,.57,.69,.14,.01,.26,.26,.39,.4-.15,.09-.29,.25-.44,.26-1.27,.02-2.53,.01-3.79,.01q-.13-.59,.81-.82v-6.67Z" style="fill: #fece3b;"/>
  </g>
</svg>